<?xml version="1.0" encoding="utf-8"?>
<!-- Generator: Adobe Illustrator 29.8.2, SVG Export Plug-In . SVG Version: 9.03 Build 0)  -->
<svg version="1.0" id="Ebene_1" xmlns="http://www.w3.org/2000/svg" xmlns:xlink="http://www.w3.org/1999/xlink" x="0px" y="0px"
	 viewBox="0 0 422.2 187.4" style="enable-background:new 0 0 422.2 187.4;" xml:space="preserve">
<style type="text/css">
	.st0{clip-path:url(#SVGID_00000101812402530651666280000016618792351463754663_);}
	.st1{clip-path:url(#SVGID_00000150093337168195758700000009408468788705262516_);}
	.st2{clip-path:url(#SVGID_00000036213759924011801420000003367074038100698546_);}
	.st3{fill:#F3AF52;}
</style>
<g>
	<g>
		<g>
			<defs>
				<polygon id="SVGID_1_" points="0,115.6 20.7,0 422.2,71.8 401.5,187.4 				"/>
			</defs>
			<clipPath id="SVGID_00000141414739318769579910000009086659255674763425_">
				<use xlink:href="#SVGID_1_"  style="overflow:visible;"/>
			</clipPath>
			<g style="clip-path:url(#SVGID_00000141414739318769579910000009086659255674763425_);">
				<g>
					<defs>
						<polygon id="SVGID_00000006702304849719694930000002808277308925051565_" points="0,115.6 20.7,0 422.2,71.8 401.5,187.4 
													"/>
					</defs>
					<clipPath id="SVGID_00000160165878314680669960000018246509150089714620_">
						<use xlink:href="#SVGID_00000006702304849719694930000002808277308925051565_"  style="overflow:visible;"/>
					</clipPath>
					<g style="clip-path:url(#SVGID_00000160165878314680669960000018246509150089714620_);">
						<g>
							<defs>
								<polygon id="SVGID_00000090977969397899079630000003347271520123126912_" points="0,115.6 20.7,0 422.2,71.8 401.5,187.4 
																	"/>
							</defs>
							<clipPath id="SVGID_00000054256561565458087630000000513327883618120375_">
								<use xlink:href="#SVGID_00000090977969397899079630000003347271520123126912_"  style="overflow:visible;"/>
							</clipPath>
							<g style="clip-path:url(#SVGID_00000054256561565458087630000000513327883618120375_);">
								<path class="st3" d="M8.7,67.6c0.1,0.7,0.4,1.2,0.8,1.7c0.2,0.4,0.5,0.7,0.9,1.2c0.6,0.7,1.3,1.4,1.9,2l0.1,0.1
									c0.7,0.8,1.6,1.4,2.5,2.2l0.5,0.5l0.6,0.4c0.2,0.2,0.5,0.5,0.8,0.6c0.1,0.1,0.2,0.2,0.3,0.3c0.5,0.5,1.2,1,1.8,1.3l0.9,0.7
									c0.5,0.5,1.1,0.8,1.8,1.3c1,0.7,1.8,1.2,2.7,1.8c0.2,0.2,0.4,0.3,0.7,0.4c0.7,0.4,1.3,0.7,1.9,1.1c2.3,1.3,4.1,2.1,5.7,2.8
									c0.8,0.4,1.8,0.7,2.6,1.1l0.2,0l0.5,0.2c0.7,0.3,1.5,0.7,2.4,0.9c0.8,0.3,1.8,0.5,2.7,0.7l0.5,0.1c0.6,0.1,1.3,0.2,2,0.3
									c0.4,0.1,0.6,0.1,1,0.2c0.6,0.1,1.3,0.2,2,0.4l0.9,0.2l0.2,0c0.9,0.2,1.7,0.3,2.6,0.5c2.1,0.2,4.1,0.2,6.2,0.2
									c2.5-0.1,4.7-0.2,6.6-0.3c0.9-0.1,1.9-0.2,2.9-0.4c0.8-0.1,1.4-0.2,2.1-0.5c0.3-0.1,0.5-0.2,0.7-0.1
									c1.7-0.5,3.6-0.9,5.8-1.5l0.7-0.3c0.5-0.2,1.1-0.3,1.6-0.5c0.8-0.2,1.6-0.4,2.2-0.5c0.3-0.1,0.4-0.1,0.7-0.1
									s0.4-0.1,0.7-0.1c0.4-0.1,0.9-0.2,1.3-0.3c0.4-0.1,0.7-0.3,0.8-0.4c0.8-0.1,1.7-0.3,2.5-0.4c0.7-0.1,1.4-0.2,2.1-0.4
									l0.4-0.1c0.5-0.2,1-0.2,1.6-0.3c3.1-0.6,6-1.1,8.6-1.6c1.3-0.3,2.7-0.4,4.4-0.6l-0.1,0.1c-0.3,0.2-0.7,0.4-1,0.5l0,0.2
									c-0.7,0.4-1.4,0.6-2.1,0.9c-0.9,0.5-1.8,0.8-2.6,1.3c-0.7,0.4-1.5,0.7-2.3,1.1c-0.8,0.4-1.8,0.7-2.5,1.1L91,87.7
									c-1.8,0.7-3.5,1.4-5.3,2.1c-0.5,0.2-1.1,0.4-1.5,0.6c-0.4,0.2-0.7,0.3-1.1,0.4c-1,0.3-1.9,0.8-2.9,1.3
									c-0.4,0.2-0.8,0.4-1.2,0.5c-0.6,0.3-1,0.5-1.5,0.7c-0.6,0.3-1.2,0.5-1.8,0.8c-0.4,0.2-0.7,0.3-1.1,0.4
									c-0.8,0.4-1.5,0.6-2.3,1c-1.2,0.5-2.3,1-3.6,1.5c-0.4,0.2-0.7,0.4-1.1,0.4c-0.6,0.3-1.2,0.5-1.8,0.7
									c-0.3,0.1-0.5,0.2-0.7,0.3c-0.7,0.3-1.4,0.5-2.1,0.9c-0.8,0.4-1.7,0.8-2.4,1.2l-0.3,0.1l-0.5,0.3c-0.7,0.4-1.4,0.6-2.1,1
									c-1.5,0.9-3.5,1.9-5.3,3.4c-1.8,1.3-3.3,2.8-4.6,3.9c-0.5,0.4-0.9,0.9-1.4,1.3c-0.3,0.2-0.6,0.5-0.9,0.7
									c-0.3,0.3-0.6,0.7-0.9,0.9c-0.4,0.3-0.8,0.8-1.2,1.1c-0.9,0.9-1.7,1.7-2.3,2.4c-0.8,0.7-1.3,1.5-1.8,2.3
									c-0.5,0.8-0.9,1.7-0.9,2.6c0,0.5,0.3,1.1,0.8,1.4c0.1,0,0.1,0.1,0.2,0.2c0.5,0.2,0.6,0.2,1.1,0.4c0.1,0,0.2,0,0.4,0.1
									c0.9,0.2,1.7,0.2,2.6,0.3c0.9,0,1.7,0.2,2.6,0.2c1,0.1,2,0.1,3,0.3l0.6,0c0.8,0,1.5,0.1,2.3,0.2c1,0.1,2,0,3-0.1
									c0.5,0,0.9,0,1.4,0c1.7-0.1,3.4,0,5.1-0.2c1-0.1,2.1-0.3,3.1-0.5c0.5-0.2,1.2-0.3,1.7-0.3c0.4-0.1,0.8-0.1,1.1-0.3
									c2.1-0.5,4.1-0.9,6.1-1.6c1.1-0.3,2-0.8,3-1.1c0.3-0.2,0.7-0.3,1-0.5c0.6-0.3,1.2-0.4,1.8-0.7c1.8-0.8,3.6-1.8,5.5-3
									c1.7-1.1,3.3-2.2,4.8-3.5c1.5-1.1,2.9-2.5,4.6-4.4c1.3-1.4,2.3-2.9,3.4-4.7c0.2-0.2,0.4-0.6,0.5-0.8
									c0.4-0.6,0.7-1.1,1.2-1.7c0.5-0.8,1.2-1.7,1.7-2.6c0.2-0.5,0.5-0.8,0.7-1.3c0.2-0.5,0.5-0.9,0.7-1.3
									c0.3-0.4,0.5-0.9,0.9-1.4c0.2-0.3,0.5-0.7,0.7-1c0.3-0.4,0.5-0.9,0.9-1.4c0.3-0.4,0.5-0.9,0.9-1.4c0.5-0.9,1.2-1.7,1.7-2.6
									l0.5-0.7c1-1.5,2-2.9,3.2-4.3c0.2-0.2,0.4-0.6,0.4-0.8c1.2-0.1,2.5-0.1,4-0.2c2.2-0.1,4.4,0,6.6,0l0.6,0
									c2.6,0.1,5.4,0.1,8.2,0.3c2,0.1,3.9,0.3,5.9,0.4c1,0.1,2,0.1,3.1,0.3c2.4,0.2,4.7,0.5,7,0.7l0.2,0c0.6,0.1,1.2,0.2,1.9,0.2
									c0.5,0.1,1,0.2,1.5,0.1l0.1,0c0.7,0.1,1.6,0.2,2.4,0.3c1.2,0.2,2.5,0.3,3.6,0.5l0.4,0.1l0.6,0.1c0.2,0,0.5,0.1,0.9,0.1
									c-0.4,0.1-0.8,0.1-1.3,0.2c-1.3,0.1-2.6,0.2-3.9,0.3c-1.3,0.2-2.5,0.3-3.8,0.6c-0.3,0.1-0.5,0-0.8,0.1
									c-0.9,0.1-1.8,0.2-2.7,0.3c-0.4,0.1-0.8,0-1.2,0.1c-0.4,0.1-0.8,0.1-1,0.2c0,0-0.1,0-0.1,0.1c-0.1,0-0.3,0.1-0.4,0.1
									c-0.9,0.1-1.7,0.3-2.5,0.6c-1.8,0.3-3.7,0.7-5.5,1c-0.8,0.2-1.6,0.5-2.5,0.7c-0.8,0.2-1.7,0.5-2.5,0.7c-2,0.7-4,1.6-5.8,2.6
									c-1.7,1-3.4,1.9-5,3c-0.9,0.6-1.7,1.2-2.7,1.8c-0.7,0.6-1.6,1.1-2.3,1.7c-1.6,1.2-3.2,2.3-4.8,3.6c-1.2,0.9-2.4,1.9-3.4,2.8
									c-0.2,0.2-0.4,0.4-0.6,0.7c-0.6,0.8-1,1.9-0.4,2.7c0.1,0.1,0.3,0.4,0.5,0.5c0.4,0.2,0.7,0.4,1.1,0.4c0.2,0,0.6,0.1,0.9,0
									c0.1,0,0.2,0,0.5,0.1c0.1,0,0.2,0,0.2,0c2,0.2,4.1,0.5,6.1,0.3c2,0,4.2-0.3,6.3-0.4c2.1-0.1,4.1-0.3,6.2-0.5
									c2.2-0.2,4.6-0.7,6.7-1.2c2-0.5,4-1.1,6-1.7c1.1-0.4,2.2-0.9,3.3-1.3c1-0.5,1.9-0.9,2.8-1.5c1.7-1.1,3.4-2.2,5-3.4
									c1.6-1.2,3.2-2.5,4.7-3.7c1.8-1.6,3.7-3,5.6-4.4c2.1-1.7,3.9-3.4,5.9-5.2c0.1-0.1,0.3-0.3,0.4-0.6l0.7,0.1
									c2.2,0.3,4.6,0.7,6.8,1c1,0.2,1.9,0.2,2.9,0.3c1.1,0.1,2.2,0.3,3.3,0.4c0.4,0.2,0.7,0.2,1,0.2l0.1,0l0.2,0l0.1,0
									c0.2,0,0.4,0.1,0.6,0.1c0.5,0.1,0.7,0.2,1.1,0.2c0.2,0,0.5,0.1,0.6,0.1l0.2,0.1l-0.1,0c0.4,0.1,0.6,0.1,1.1,0.2
									c0.1,0,0.4,0.1,0.5,0.1c0.1,0,0.4,0.1,0.5,0.1l0.2,0.1l0.2,0c0.7,0.1,1.5,0.1,2.1,0.1c0.9,0,1.6,0,2.5,0.2l0.1,0
									c0.2,0,0.5,0.1,0.7,0.1l0.2,0l0.1,0c0.5,0.1,0.9,0,1.4,0.1c0.2,0.1,0.4,0.1,0.6,0.1c0.2,0,0.5,0.1,0.6,0.1l0.1,0
									c0.6,0,1.4,0.1,2.1,0.1c-1.5,0.6-3,1.1-4.5,1.7c-1.8,0.8-3.6,1.5-5.3,2.3c-0.8,0.4-1.8,0.8-2.6,1.2
									c-0.9,0.5-1.7,0.9-2.5,1.3c-1,0.5-1.8,0.9-2.8,1.3c-1,0.5-1.8,0.9-2.8,1.4c-1,0.5-1.8,1.1-2.8,1.5c-0.8,0.5-1.7,1-2.4,1.5
									c-0.8,0.5-1.7,1-2.4,1.6c-0.9,0.6-1.7,1.2-2.5,2c-1.5,1.3-2.4,2.9-3.5,4.5c-0.5,0.8-0.9,1.6-1.3,2.4
									c-0.5,0.8-0.9,1.6-1.3,2.4c-0.4,0.9-0.9,1.9-1.3,2.9c-0.3,1-0.7,1.8-1.1,2.7c-0.4,0.9-0.7,1.9-1,2.9c-0.1,0.5-0.3,1-0.4,1.3
									c-0.1,0.6-0.4,1.3-0.4,2.1c0,0.1,0.1,0.3,0,0.5c0,0.5,0.1,0.8,0.3,1.2c0.2,0.4,0.4,0.7,0.7,1c0.1,0,0.1,0.1,0.2,0.2
									c0.7,0.5,1.4,0.5,2.3,0.4c0.8-0.1,1.5-0.4,2.3-0.6c2-0.7,3.9-1.5,5.8-2.2c1-0.5,2-0.8,3-1.2c1-0.3,1.8-0.7,2.7-1
									c1.9-0.8,3.8-1.9,5.6-2.8c0.9-0.5,1.8-0.9,2.7-1.5c0.8-0.5,1.6-1,2.4-1.6c0.9-0.5,1.7-1.1,2.5-1.7c0.7-0.5,1.3-1,2-1.5
									c1.3-1.2,2.8-2.3,4-3.5c0.6-0.7,1.2-1.2,1.8-1.8c0.6-0.8,1.3-1.4,1.8-2.3c0.9-1.4,1.4-2.9,2-4.3c0.4-0.7,0.6-1.3,1-2
									c0.4-0.7,0.8-1.5,1-2.2c0-0.1,0.2-0.2,0.2-0.4c1.5-3.3,3.5-6.2,5-9.5l0.1,0l0.4,0.1l0.1,0c0.9,0,1.7,0.2,2.5,0.2l0.9,0
									c0.8,0,1.4,0.1,2.1,0.1c1,0.1,2,0.1,2.9,0.1c1.4,0,2.5,0.1,3.6,0.1c1.6,0.2,3,0.3,4.2,0.5c1.3,0.2,2.7,0.4,4.2,0.5
									c0.7,0.1,1.5,0.1,2.2,0.3c0.7,0.1,1.5,0.1,2.2,0.3c1.4,0.1,2.8,0.4,4.1,0.6l0.4,0.1c1,0.2,2,0.4,3,0.4l1.1,0.2l1.3,0.2
									l0.5,0.1c1.7,0.3,3.5,0.5,5.3,0.8c0,0-0.1,0-0.1,0.1c-0.9,0.2-1.9,0.4-2.8,0.8c-0.9,0.2-1.9,0.5-2.8,0.9
									c-3.6,1.1-7.4,2.4-11,3.5c-0.7,0.3-1.5,0.5-2.2,0.8c-0.8,0.4-1.6,0.7-2.5,1.1c-1.8,0.9-3.6,1.9-5.2,3.1
									c-1.7,1.2-3.3,2.4-4.9,3.8c-0.7,0.6-1.4,1.3-2,1.9c-0.8,0.7-1.4,1.4-2.2,2.1c-1.4,1.5-2.8,2.9-4.3,4.3
									c-1.5,1.4-3,2.9-4.4,4.4c-0.8,0.9-1.6,1.8-2.2,2.6c-0.3,0.4-0.3,1.2-0.2,1.7c0.2,0.4,0.4,0.7,0.7,1c0.1,0.1,0.2,0.2,0.4,0.2
									c0.4,0.3,1.1,0.3,1.6,0.2c1.9-0.2,3.9-0.5,5.7-0.8c2.2-0.4,4.6-0.8,6.8-1.3c2-0.4,4-0.9,6-1.5s4-1.2,5.9-2
									c2-0.8,4-1.8,5.9-2.7c1.8-0.9,3.7-1.7,5.4-2.7c1.7-1,3.3-2.1,4.9-3.2c1.8-1.3,3.3-2.8,4.7-4.5c1.4-1.5,2.8-2.9,4.1-4.5
									c1.3-1.5,2.4-3.3,3.7-4.9c0.5-0.7,1.1-1.3,1.6-2c0.1-0.1,0.2-0.3,0.3-0.4c0.2,0,0.5,0.1,0.7,0.1c1.1,0.2,2.2,0.5,3.2,0.7
									c2.9,0.9,5.4,1.8,7.7,2.8c1.1,0.4,2,0.9,3.1,1.2l0.1,0c1.5,0.7,3.2,1.3,4.7,1.9c0.7,0.3,1.6,0.5,2.3,0.8l0.1,0
									c0.6,0.2,1.1,0.4,1.7,0.5c1.3,0.5,2.7,1,4.1,1.6c0.5,0.2,0.9,0.4,1.4,0.5c0.9,0.4,1.8,0.7,2.7,1.1c1.1,0.4,2,0.9,3,1.3
									l0.9,0.4c0.9,0.4,1.9,0.8,2.8,1.3c1.8,0.7,3.5,1.5,5.3,2.3c1.3,0.6,2.6,1.2,3.8,2c-0.4-0.1-0.7-0.1-1.1-0.2
									c-1-0.2-2-0.4-2.8-0.6c-1.9-0.5-3.9-0.9-5.8-1.3c-1-0.2-1.8-0.5-2.8-0.6c-1-0.3-1.8-0.6-2.8-0.7c-1.9-0.5-3.9-0.8-5.9-1.2
									c-2.1-0.4-4-0.7-6.2-1c-2.1-0.1-4.1-0.4-6.2-0.5c-1-0.1-2.1-0.1-3.2-0.1c-1-0.1-2-0.1-3,0c-1.1,0.1-2.3,0-3.3,0.2
									c-0.5,0-0.9,0.2-1.3,0.4c-0.1,0.1-0.3,0.2-0.5,0.3c-0.3,0.2-0.7,0.5-0.8,0.9c-0.2,0.3-0.4,0.7-0.3,1.1
									c-0.1,0.2,0,0.5,0.1,0.7c0.1,0.3,0.3,0.6,0.5,0.8c0.2,0.3,0.5,0.6,0.9,0.9c0.1,0.1,0.3,0.3,0.5,0.5c0.2,0.2,0.4,0.3,0.8,0.5
									c0.8,0.5,1.5,1,2.3,1.4c0.9,0.5,1.7,1.1,2.6,1.5c0.8,0.4,1.6,0.8,2.6,1.2c1.9,1,3.6,2,5.3,2.9c2,0.9,4,1.7,6.1,2.6
									c0.9,0.4,1.9,0.7,3,1.2c1.1,0.4,2,0.9,3.1,1.2c1,0.3,1.9,0.5,3,0.7c1.1,0.2,2.2,0.3,3.4,0.2c2.1,0,4.2-0.7,6.2-1.3
									c3.1-1,6-2,9.1-3.2c1.5-0.6,3-1.2,4.5-1.9c1.2-0.4,2.3-0.9,3.5-1.3c0.2,0,0.3,0.2,0.6,0.2c1.6,0.8,3.3,1.7,5,2.5l0.1,0
									c0.8,0.4,1.6,0.9,2.4,1.3c1.5,0.8,2.9,1.5,4.4,2.2l0.1,0c0.9,0.4,2,1,2.9,1.4c1,0.6,2.4,1.2,3.7,1.8c1.2,0.5,2.3,1,3.8,1.6
									c0.7,0.3,1.3,0.5,2,0.9c0.6,0.2,1.3,0.5,1.9,0.7c1.1,0.4,2.1,0.8,3.1,1.2c-0.6-0.1-1.4-0.1-2-0.2c-2.1-0.2-4.1-0.5-6.2-0.6
									c-1.1-0.1-2.1-0.2-3.2-0.3c-1.2-0.2-2.5-0.3-3.7-0.3c-1,0.1-2.1,0.3-3,0.5c-1.1,0.3-2.2,0.8-3.2,1.1c-1.7,0.6-3.6,1-5.4,1.4
									c-2,0.5-4,0.9-5.9,1.3c-0.9,0.2-2,0.4-2.9,0.7c-0.5,0.2-1.1,0.3-1.6,0.6c-0.3,0.1-0.4,0.2-0.6,0.4c-0.1,0.1-0.3,0.3-0.5,0.5
									c-0.2,0.2-0.4,0.7-0.3,1.1c-0.1,0.4,0,0.8,0.2,1.2c0.2,0.4,0.5,0.7,0.7,0.9c0.1,0.1,0.3,0.3,0.6,0.4c0.6,0.4,1,0.6,1.6,0.9
									c0.8,0.4,1.7,0.7,2.6,1.1c2,0.7,3.9,1.5,6,2.1c1.9,0.6,3.9,1.1,5.9,1.6c2.2,0.5,4.4,1,6.6,1.4c1,0.2,2,0.2,3,0.3
									c1,0.1,2,0.1,3,0c2.4-0.1,4.7-0.2,7.2-0.6c0.5,0,1-0.2,1.4-0.2c0.5-0.2,1.1-0.3,1.6-0.5c1.2-0.3,2.3-0.7,3.3-1
									c0.7-0.3,1.4-0.5,2.1-0.6c1.5-0.5,2.8-0.9,4.3-1.4c1.4-0.5,2.7-1,4-1.8c1.3-0.7,2.5-1.5,3.9-2.1c0.5-0.3,1.3-0.7,1.9-0.9
									c0.4-0.2,0.8-0.4,1.1-0.6c0.6,0.1,1.2,0.2,1.7,0.3c0.4,0.1,0.7,0.1,1.1,0.2l0.7,0.1l0.6,0.1c1.1,0.2,2.2,0.4,3.3,0.6
									c0.9,0.2,1.7,0.3,2.6,0.6c0.5,0.1,1,0.2,1.6,0.3c1,0.2,2.1,0.4,3.1,0.5l0.1,0l1.1,0.2c0.7,0.1,1.5,0.3,2.2,0.4
									c0.2,0,0.5,0.1,0.7,0.1l0.1,0c0.4,0.1,0.7,0.1,1.1,0.2c1,0.2,2,0.2,2.8,0.4c0.9,0,1.9,0.2,2.7,0.2l0.6,0.1
									c0.5,0.1,1.1,0.1,1.7,0.2c0.2,0,0.6,0,0.9,0c0.5,0,1.1,0.1,1.6,0c0.6,0,1-0.1,1.5-0.4c0.3-0.2,0.5-0.4,0.6-0.7
									c0.3-0.2,0.4-0.3,0.6-0.4c0.4-0.3,0.7-0.6,1.1-1l0.1-0.1l0.3-0.2l0.3-0.2c0.3-0.3,0.6-0.7,0.9-0.9c0.1-0.1,0.3-0.2,0.4-0.3
									c0.1-0.1,0.3-0.2,0.3-0.3c0.2-0.2,0.5-0.4,0.6-0.7l0.1-0.1c0.1-0.1,0.3-0.3,0.3-0.5l-0.1,0.1c0.6-0.6,1.1-1.1,1.4-1.6
									c0.2-0.2,0.3-0.5,0.5-0.7c0.2-0.2,0.3-0.4,0.5-0.8c0.2-0.5,0.1-0.9,0.2-1.3c-0.1-0.1-0.1-0.4-0.2-0.5
									c-0.1-0.3-0.3-0.5-0.7-0.9c-0.2-0.2-0.4-0.3-0.8-0.4c-0.4-0.1-0.7-0.1-1.2-0.2c-0.7-0.1-1.5,0-2.1,0l-0.1,0
									c-0.9,0-1.9-0.1-2.8-0.1c-0.8,0-1.6,0-2.2-0.1l-0.4-0.1c-0.9,0-1.9-0.1-2.8-0.1l-0.4-0.1c-0.4-0.1-0.8,0-1.1-0.1l-0.1,0
									c-0.5-0.1-1.1-0.1-1.6-0.2c-0.7-0.1-1.5-0.3-2.2-0.4l-0.2,0c-0.2,0-0.4-0.1-0.6-0.1c-1-0.2-2-0.4-2.8-0.4
									c-1.9-0.2-3.8-0.5-5.9-0.9c-1-0.2-2-0.4-2.8-0.5l-0.1,0c-1-0.2-2-0.4-3.1-0.5c-0.7-0.1-1.6-0.3-2.3-0.4
									c-0.9-0.2-1.7-0.3-2.6-0.5c-0.1-0.1-0.1-0.1-0.2-0.3c-0.5-0.7-1-1.5-1.4-2.2c-0.5-0.7-0.9-1.4-1.4-2.3
									c-0.9-1.4-1.8-2.7-2.7-4.2c-0.7-1.1-1.3-2.4-1.9-3.6c-0.8-1.4-1.5-2.7-2.3-4c-1.1-1.8-2.1-3.8-3.4-5.6
									c-1.1-1.7-2.2-3.4-3.5-4.9c-1.5-1.7-3.1-3.1-4.9-4.4c-0.8-0.5-1.5-1-2.2-1.7c-0.8-0.5-1.6-1.2-2.4-1.7
									c-3.3-2.5-6.8-4.9-10.3-7.3c-0.9-0.7-1.7-1.2-2.6-1.9c-0.4-0.3-0.8-0.6-1.2-0.9c-0.3-0.3-0.8-0.5-1.1-0.8
									c-0.4-0.3-1.2-0.6-1.7-0.4c-0.7,0.1-1.4,0.5-1.6,1.2c-0.1,0.5-0.1,0.7-0.1,1.2c0,0.1,0.1,0.1,0.1,0.3
									c0.1,0.9,0.4,1.7,0.8,2.7c0.6,2,1.3,4.2,1.9,6.2c0.3,0.9,0.7,1.9,1,2.8c0.3,0.9,0.7,1.9,1.1,2.9c0.8,1.9,1.6,4,2.6,5.8
									c1,2,2.2,3.8,3.5,5.7c0.6,0.9,1.2,1.6,2,2.4c0.3,0.3,0.7,0.6,1,1.1c0.5,0.5,1,0.9,1.4,1.4c1.5,1.4,3.1,2.7,4.6,4
									c1.3,1.1,2.5,2.4,3.8,3.3c-0.2,0-0.6-0.2-0.8-0.3c-1.7-0.5-3.5-1.1-4.9-1.8l-1.1-0.4c-0.6-0.2-1.3-0.5-1.9-0.7l-0.1,0
									c-0.4-0.1-0.6-0.2-1-0.3c-0.7-0.3-1.3-0.5-2-0.7l-0.1,0l-0.8-0.3l-1.1-0.4c-1.5-0.5-3.1-1.2-4.6-1.7
									c-1.9-0.6-3.9-1.3-5.8-2.2c-1.3-0.5-2.4-0.9-3.3-1.3c0-0.5-0.1-0.9-0.2-1.4c-0.4-1.7-1.1-3.5-1.7-5.3c-0.6-2-1.1-4-1.6-5.9
									c-0.5-1.9-1.1-3.9-1.6-5.9c-0.2-0.9-0.6-1.8-0.8-2.7c-0.2-0.9-0.5-2-0.7-2.9c-0.6-2.1-1.3-4.3-2.2-6.3
									c-0.3-0.9-0.8-1.8-1.3-2.8c-0.5-0.9-1-1.6-1.6-2.4c-0.6-1-1.3-1.9-2-2.9c-0.6-0.9-1.3-1.6-2-2.4c-1.4-1.5-2.8-2.9-4.1-4.4
									c-1.4-1.5-2.9-2.9-4.3-4.3c-0.7-0.8-1.6-1.6-2.4-2.3c-0.7-0.8-1.4-1.5-2.1-2.2c-0.3-0.3-0.7-0.8-1.1-1.1s-0.5-0.5-0.9-0.8
									c-0.7-0.5-1.6-0.5-2.2-0.1c-0.8,0.4-1.1,1.3-1.1,2.1c0.1,0.4,0,0.8,0,1.2c0.1,0.9,0.2,1.9,0.3,2.8c0,1.2,0.2,2.3,0.4,3.5
									c0.1,1,0.3,2,0.5,3c0.2,1,0.5,2.1,0.7,3.2c0.2,1.1,0.4,2.1,0.6,3c0.2,1,0.5,2,0.8,3.1c0.4,1.5,0.9,2.8,1.4,4.2
									c0.6,1.6,1.3,3.2,1.9,4.8c0.6,1.5,1.3,2.9,2,4.3c0.4,0.7,0.9,1.3,1.4,1.9c0.4,0.6,0.9,1.3,1.4,1.9c1.2,1.7,2.4,3.5,3.8,5.1
									c1.4,1.5,2.7,3,4.3,4.6c0.4,0.5,1,0.9,1.4,1.4c-0.1,0-0.2,0-0.3-0.2c-0.9-0.4-1.9-0.7-2.7-1L306,106l-0.2-0.1
									c-0.8-0.3-1.5-0.7-2.4-0.9c-1.9-0.7-3.9-1.5-6.3-2.3c-0.5-0.2-1-0.3-1.4-0.5c-0.5-0.2-1.1-0.3-1.5-0.5
									c-0.7-0.3-1.6-0.5-2.4-0.8l-0.6-0.2c-1.9-0.6-3.9-1.3-5.9-1.9l-0.3-0.2c-0.5-0.2-1-0.3-1.4-0.5l-0.1,0
									c-0.5-0.2-1-0.3-1.4-0.5c-0.4-0.2-0.7-0.2-1.2-0.5l-0.1,0.6c-0.5-0.2-1-0.3-1.4-0.5c-1.8-0.7-3.9-1.3-6.1-2
									c-0.5-0.1-0.8-0.3-1.3-0.4l-0.1,0c-0.5-0.1-1-0.3-1.4-0.4l0-0.1c-0.1-0.4-0.2-0.8-0.3-1.2c0,0.1,0.1,0.1,0.1,0.3
									c-0.1-0.3-0.2-0.5-0.2-0.8c-0.5-1.6-0.8-3.2-1.2-4.8c-0.2-0.8-0.3-1.7-0.6-2.5c-0.2-1.1-0.5-2-0.9-2.9c-0.3-1-0.5-2-0.9-2.9
									c-0.3-1-0.7-1.9-1-2.9c-0.7-1.9-1.4-3.7-2.2-5.6c-0.8-1.9-1.6-3.7-2.6-5.5c-0.5-0.9-0.8-1.8-1.3-2.6c-0.6-1-1.2-2-1.9-3
									c-0.5-0.9-1.1-1.6-1.7-2.5c-0.6-0.9-1.2-1.7-1.8-2.5c-0.7-0.9-1.4-1.6-2.1-2.5c-0.6-0.7-1.3-1.5-1.9-2.2
									c-1.3-1.6-2.6-3.3-4.1-4.8c-0.6-0.7-1.4-1.4-2-2.1c-0.9-0.8-1.7-1.6-2.6-2.4c-0.2-0.2-0.4-0.5-0.7-0.6
									c-0.1-0.1-0.2-0.2-0.3-0.2c-0.2-0.2-0.3-0.2-0.6-0.4c-0.1,0-0.3-0.2-0.5-0.2c-0.2-0.1-0.4-0.1-0.6-0.1
									c-0.4-0.1-0.9,0-1.2,0.2c-0.6,0.3-0.9,0.7-1.1,1.2c-0.2,0.3-0.1,0.7-0.2,1c-0.1,1.4-0.1,2.6-0.1,3.9c0-0.1-0.1-0.4,0-0.5
									c0,2.2,0.3,4.2,0.5,6.4c0.3,2.1,0.5,4.1,0.8,6.2c0.1,1,0.3,2.1,0.5,3.1c0.2,1,0.4,2.1,0.6,3.3c0.5,2.1,1,4.4,1.6,6.4
									c1.3,3.8,3.8,7,6.4,10c1.4,1.5,2.8,2.9,4.2,4.3c1.6,1.7,3.2,3.2,4.9,4.7c0.3,0.3,0.8,0.6,1.1,1c0.3,0.3,0.7,0.5,1,0.8
									c-1.1-0.2-2.3-0.4-3.4-0.6l-0.1,0c-0.9-0.2-1.7-0.3-2.4-0.4l-0.4-0.1l-1.1-0.2c-1.3-0.2-2.9-0.6-4.5-0.9
									c-2-0.4-3.9-0.7-6.3-1c-1.2-0.2-2.5-0.3-3.6-0.4l-0.1,0c-0.9,0-1.7-0.2-2.6-0.2c-0.9-0.2-1.7-0.2-2.6-0.3l-0.1,0
									c-0.9-0.2-1.9-0.2-3-0.3c-0.4-0.1-0.8,0-1.1-0.1l-0.1,0c-0.2,0-0.6,0-0.9,0c-0.1-0.1-0.2-0.4-0.3-0.6
									c-0.2-0.4-0.4-0.8-0.7-1.3c-0.5-0.9-1-1.7-1.4-2.5c-0.7-1.3-1.4-2.5-2.1-3.8c-0.7-1.3-1.5-2.4-2.2-3.7
									c-0.8-1.3-1.6-2.6-2.3-3.8c-0.8-1.3-1.7-2.6-2.6-3.8c-1.2-1.7-2.4-3.3-3.7-5c-1.2-1.6-2.5-3.1-3.8-4.7
									c-0.6-0.7-1.4-1.5-2.1-2.3c-0.6-0.7-1.4-1.4-2.2-2c-0.7-0.8-1.6-1.4-2.5-2.2c-0.8-0.7-1.7-1.3-2.5-1.8
									c-1.6-1.2-3.1-2.2-4.7-3.3c-0.8-0.5-1.6-1-2.4-1.6c-0.9-0.5-1.7-1.1-2.6-1.6c-1.8-1.1-3.7-2.2-5.5-3.3
									c-0.9-0.5-1.8-1-2.8-1.5c-0.9-0.5-1.8-1-2.8-1.4c-0.7-0.2-1.3-0.6-2-0.9c-0.5-0.2-1.1-0.3-1.5-0.4c-0.2,0-0.5,0-0.8,0
									c-0.4,0.2-0.6,0.3-1,0.6c-0.4,0.3-0.7,1-0.7,1.5c-0.1,0.2,0,0.6,0.1,0.9c0.1,0.4,0.2,0.8,0.3,1.1c0.5,1.9,1.2,3.6,1.9,5.5
									c0.4,1.1,0.7,2.2,1.2,3.3c0.7,1.9,1.3,3.8,2.2,5.6c0.5,1,0.8,1.9,1.3,2.8c0.6,1,1.2,2,1.8,2.9c1.2,1.9,2.4,3.6,3.9,5.3
									c1.3,1.6,2.7,3.2,4.2,4.7c0.7,0.8,1.5,1.5,2.4,2.3c0.6,0.6,1.3,1.1,2.1,1.8c0.2,0.2,0.4,0.3,0.5,0.5
									c1.4,1.1,3.1,2.2,4.7,3.1c0.8,0.5,1.6,0.9,2.4,1.4c0.7,0.4,1.4,0.9,2.2,1.3c0.8,0.5,1.6,0.9,2.4,1.4
									c0.9,0.5,1.8,1.1,2.7,1.6c0.9,0.5,2,1.1,2.9,1.5c1,0.6,2.2,1,3.3,1.6c0.1,0,0.1,0,0.2,0.2c-0.6,0-1.3,0-1.8-0.1
									c-0.2,0-0.6,0-0.9,0l-0.1,0c-0.4,0.1-0.8,0-1.2-0.1l-0.4-0.1l-0.1,0c-0.4-0.1-0.9,0-1.3-0.1c-0.2,0-0.5,0-0.8,0l-0.4-0.1
									c-0.6,0-1.4-0.1-2-0.1c-0.9,0-1.7-0.2-2.6-0.2l-0.2,0c-0.4-0.1-0.8,0-1.2-0.1l-1.1-0.1c-1.1-0.1-2.2-0.2-3.4-0.2l-0.9,0
									l-0.1,0c-1.3-0.1-2.4-0.2-3.6-0.3l-0.6-0.1c-1.2-0.1-2.4-0.2-3.6-0.4c-1.4-0.1-2.8-0.4-4.2-0.5c-1.1-0.1-2.2-0.3-3.4-0.4
									c-1.6-0.2-3.5-0.4-5.2-0.5c0,0,0,0,0-0.1c0-0.1,0-0.1-0.1-0.1c-0.1-0.3-0.3-0.6-0.4-0.7c-0.2-0.3-0.4-0.6-0.5-1
									c-0.5-0.7-0.9-1.4-1.4-2.3c-0.6-1.4-1.2-2.6-1.8-4c-0.6-1.4-1.3-2.8-2-4.3c-0.6-1.1-1.1-2.2-1.6-3.3
									c-0.5-1.2-1.2-2.5-1.7-3.7c-0.8-1.7-1.6-3.6-2.5-5.3c-0.9-1.9-2.1-3.9-3.1-5.9c-0.5-0.9-1-1.7-1.4-2.5
									c-0.5-1-0.9-1.8-1.5-2.8c-1-1.7-2.2-3.3-3.3-5c-0.5-0.7-1.1-1.5-1.8-2.2c-0.7-0.9-1.5-1.8-2.2-2.6c-0.6-0.7-1.4-1.4-2.1-2.2
									c-0.8-0.6-1.5-1.3-2.3-1.8c-1.8-1.2-3.6-2.3-5.4-3.5c-1.8-1.1-3.6-2.3-5.5-3.4c-0.7-0.4-1.5-0.8-2.2-1.2
									c-0.7-0.4-1.4-0.9-2.2-1.3c-0.4-0.2-0.6-0.2-0.9-0.4c-0.5-0.1-1.2-0.1-1.7,0.3c-0.1,0.1-0.3,0.2-0.5,0.4
									c-0.3,0.3-0.4,0.6-0.4,1.1c-0.1,0.5,0,0.9,0.1,1.3c0.2,0.5,0.3,1.1,0.5,1.6c0.2,0.9,0.3,1.8,0.5,2.8c0.2,0.9,0.4,2,0.7,2.9
									c0.2,1.1,0.5,2,0.7,3c0.2,0.9,0.5,2,0.7,2.9c0.5,2,1.1,3.9,1.7,5.9c0.8,2,1.5,4.1,2.6,6c0.9,1.8,2.2,3.6,3.4,5.2
									c0.6,0.9,1.2,1.6,1.8,2.5c0.6,0.9,1.3,1.6,2.1,2.4c1.4,1.5,2.9,2.9,4.4,4.3c0.7,0.8,1.5,1.4,2.3,2.1
									c0.8,0.6,1.5,1.3,2.3,1.8c1.2,1,2.4,2,3.6,2.9c2,1.6,4,3.2,6,4.7c1.6,1.2,3.2,2.4,4.8,3.5c-0.9-0.2-1.8-0.3-2.6-0.5
									l-0.7-0.1c-1.2-0.2-2.6-0.5-3.8-0.5l-0.9-0.2c-1-0.2-2.1-0.2-3.1-0.4c-0.4-0.1-0.7-0.1-1-0.2c-1-0.2-2-0.2-3-0.4l-1.4-0.1
									c-1.6-0.2-3.1-0.4-4.7-0.6c-1-0.1-1.9-0.2-2.7-0.2l-0.1,0c-0.5-0.1-0.9,0-1.4-0.1c-0.6,0-1.4-0.1-2-0.1
									c-2.2-0.1-4.6-0.3-7-0.5c-2.8-0.1-5.5-0.1-8.7-0.2c-0.1-0.3-0.2-0.5-0.2-0.8c0-0.1-0.1-0.3-0.1-0.4
									c-0.1-0.7-0.4-1.2-0.5-1.9l-0.1-0.4c-0.1-0.4-0.3-0.7-0.3-1.1c-0.2-0.5-0.3-1-0.5-1.5c-0.2-0.4-0.2-0.8-0.4-1.1
									c-0.2-0.4-0.3-0.7-0.4-1.1c-0.1-0.4-0.3-0.7-0.4-1.1c-0.2-0.4-0.2-0.8-0.4-1.1c-0.3-0.7-0.4-1.2-0.5-1.9l-0.1-0.7l-0.2-0.8
									c-0.5-1.5-0.9-3.1-1.5-4.4c-0.3-1-0.7-1.9-1-2.7c-0.2-0.4-0.2-0.7-0.4-1.1c-0.2-0.5-0.3-1.1-0.6-1.6
									c-0.5-1.5-1.1-2.9-1.8-4.3l-0.5-1.4c-0.7-1.8-1.5-3.6-2.2-5.5c-0.9-2.1-1.9-4.1-2.6-5.8c-0.1-0.1-0.2-0.4-0.3-0.5l-0.4-0.8
									c-0.4-0.7-0.6-1.5-1-2.2c-0.4-0.7-0.8-1.8-1.3-2.6c-1-1.7-2.1-3.4-3.4-5c-0.6-0.9-1.4-1.5-2.2-2.4c-0.8-0.6-1.5-1.4-2.2-2
									c-0.1-0.1-0.2-0.2-0.3-0.3c-1.4-1.2-3-2.2-4.5-3.2l-0.1,0c-0.8-0.5-1.7-1.1-2.5-1.5c-0.5-0.2-0.9-0.5-1.4-0.8
									c-0.3-0.2-0.7-0.4-1-0.6c-0.2-0.2-0.3-0.2-0.6-0.4c-0.6-0.4-1.1-0.7-1.9-1c-0.5-0.2-1.1-0.4-1.7-0.6
									c-0.5-0.1-0.9-0.1-1.4-0.1c-0.2,0-0.5,0-0.8,0.1s-0.4,0.2-0.6,0.3c-0.3,0.2-0.6,0.4-0.6,0.8c-0.3,0.3-0.3,0.8-0.4,1.3l0,0.1
									c-0.1,0.6-0.1,1.4-0.1,1.9c0,0.9,0,1.6-0.1,2.5l0,0.1c0,1.6-0.1,3.8,0.1,6l0.1,1.4c0.1,1.8,0.2,3.6,0.4,5.4
									c0.1,1,0.3,2.1,0.5,3l0.2,0.5c0.2,1,0.4,2.1,0.6,3c0.1,0.3,0.2,0.5,0.1,0.9c0.1,0.8,0.2,1.6,0.4,2.2c0.2,1,0.4,2,0.7,3
									c0.8,2.6,1.5,4.6,2.4,6.4c0.5,1,1.1,1.8,1.6,2.6c0.6,0.9,1.2,1.7,1.9,2.6c0.6,0.7,1.3,1.4,2.1,2.3c0.5,0.6,1.1,1.1,1.6,1.6
									c0.2,0.2,0.4,0.3,0.7,0.6c0.4,0.3,0.9,0.8,1.3,1.1c0.4,0.3,0.8,0.6,1.2,1l0.2,0.2c1,0.8,2.1,1.5,3,2.2l0.8,2l0.1,0l1.2,0.9
									c1.1,0.8,2.2,1.7,3.3,2.5c1.8,1.3,3.6,2.6,5.3,3.7c1.5,1,3.1,1.9,5.1,3.1c-0.4,0.1-0.8,0-1.2,0c-2.7,0.2-5.3,0.5-7.8,0.8
									c-1.2,0.2-2.4,0.2-3.5,0.4c-1,0.2-2.1,0.4-3.1,0.6l-0.1,0l-0.7,0.1L94,79.6l-1.2,0.3c-1.6,0.2-3.4,0.7-5.1,1
									c-2.1,0.4-4.3,0.7-6.4,1.1l-0.7,0.1c-0.1,0-0.1,0-0.3,0.1c-0.4-0.1-0.9,0-1.2-0.1c-0.4-0.1-0.7-0.2-1.2-0.5
									c-0.6-0.4-1-0.7-1.5-1l-0.3-0.2c-0.7-0.5-1.3-1-2-1.4c-0.9-0.7-1.6-1.2-2.4-1.6c-0.2-0.2-0.4-0.3-0.7-0.5
									c-0.6-0.4-1.1-0.7-1.7-1.2l-0.8-0.5c-1.1-0.8-2.4-1.7-3.6-2.5c-0.6-0.4-1.1-0.7-1.7-1.1l-0.6-0.4c-0.9-0.5-1.7-1.1-2.4-1.4
									l-0.2-0.2l0.1,0c-1.3-0.7-2.7-1.4-3.9-2.1c-0.6-0.2-1-0.6-1.6-0.8l-0.3-0.2c-1.6-0.9-3.2-1.7-4.9-2.5
									c-1.9-0.8-3.8-1.6-5.4-2.2l-0.5-0.2c-1.5-0.7-3.2-1.2-4.9-1.8c-1-0.3-2-0.6-3-0.8c-0.9-0.2-1.8-0.3-2.8-0.4
									c-2-0.1-4.1,0-6.5,0.2c-0.9,0.1-1.9,0.2-3,0.5c-1,0.2-2.1,0.6-3.1,1.1c-1,0.5-1.9,0.8-2.8,1.3c-0.6,0.3-1.1,0.6-1.7,0.8
									c-0.3,0.2-0.7,0.4-1,0.6c-0.9,0.5-1.8,0.8-2.6,1.2L12,64.5l-0.3,0.1c-0.3,0.1-0.7,0.3-1,0.5c-0.1,0.1-0.4,0.2-0.6,0.4
									l-0.1,0.1c-0.1,0.1-0.3,0.3-0.5,0.4l-0.4-0.2C8.8,66.2,8.7,67,8.7,67.6z M203.1,99.7c0-0.1,0.2-0.3,0.2-0.5
									C203.3,99.5,203.1,99.6,203.1,99.7z M365.2,126.3C365.2,126.2,365.1,126.2,365.2,126.3C365.2,126.2,365.2,126.3,365.2,126.3
									z M358.9,115.2c0.1,0.1,0.1,0.3,0.2,0.3C358.9,115.4,358.8,115.3,358.9,115.2z"/>
							</g>
						</g>
					</g>
				</g>
			</g>
		</g>
	</g>
</g>
</svg>
