<?xml version="1.0" encoding="utf-8"?>
<!-- Generator: Adobe Illustrator 29.8.2, SVG Export Plug-In . SVG Version: 9.03 Build 0)  -->
<svg version="1.0" id="Ebene_1" xmlns="http://www.w3.org/2000/svg" xmlns:xlink="http://www.w3.org/1999/xlink" x="0px" y="0px"
	 viewBox="0 0 145.9 139.9" style="enable-background:new 0 0 145.9 139.9;" xml:space="preserve">
<style type="text/css">
	.st0{fill:#F3AF52;}
</style>
<g>
	<g>
		<g>
			<g>
				<g>
					<g>
						<g>
							<g>
								<g>
									<g>
										<g>
											<path class="st0" d="M73.5,139.3c0.8,0.6,1.8,0.7,2.8,0.5c0,0,0,0,0,0c0.1,0,0.3-0.2,0.5-0.2c0.8-0.3,1.4-0.8,2.2-1.1
												l0.5-0.2c0.5-0.2,0.8-0.5,1.3-0.6c0.6-0.4,1.2-0.6,1.7-1c0.4-0.3,0.9-0.4,1.3-0.8c0.4-0.3,0.8-0.5,1.3-0.8
												c0.5-0.2,0.8-0.5,1.3-0.8c0.4-0.3,0.9-0.4,1.3-0.8c0.8-0.5,1.4-0.8,2.2-1.1l0.8-0.3l0.9-0.4c1.7-1,3.6-1.8,5.1-2.9
												c1.2-0.6,2.2-1.3,3.1-1.9c0.4-0.3,0.8-0.4,1.3-0.8c0.6-0.4,1.3-0.6,1.8-1.1c1.7-1,3.3-2,4.9-3.2l1.6-0.9
												c2.1-1.3,4.1-2.7,6.3-4c2.4-1.6,4.6-3.3,6.6-4.6c0.1-0.1,0.4-0.3,0.5-0.5l0.9-0.7c0.8-0.7,1.7-1.1,2.5-1.8s2-1.4,2.9-2.2
												c1.9-1.6,3.7-3.4,5.4-5.4c1-1,1.5-2.1,2.5-3.3c0.6-1.1,1.4-2.2,2-3.2c0.1-0.1,0.2-0.3,0.3-0.4c1.2-2,2-4.2,2.9-6.3l0-0.1
												c0.4-1.1,1-2.4,1.3-3.4c0.1-0.7,0.4-1.2,0.7-1.9c0.2-0.4,0.3-1,0.5-1.4c0.2-0.3,0.2-0.4,0.4-0.8c0.4-0.8,0.6-1.5,0.8-2.6
												c0.1-0.7,0.2-1.5,0.3-2.2c0-0.6-0.1-1.1-0.2-1.8c0-0.2-0.1-0.6-0.3-1c-0.2-0.3-0.3-0.4-0.5-0.7c-0.3-0.3-0.6-0.6-1.1-0.6
												c-0.4-0.3-1.1-0.2-1.7-0.2l-0.1,0c-0.8,0-1.8,0.2-2.4,0.3c-1.1,0.2-2,0.4-3.1,0.5l-0.1,0c-2,0.4-4.7,0.8-7.4,1.5
												l-1.7,0.5c-2.2,0.5-4.4,1.1-6.6,1.8c-1.2,0.4-2.5,0.9-3.6,1.3l-0.6,0.4c-1.2,0.5-2.5,1-3.6,1.4c-0.3,0.2-0.6,0.4-1.1,0.3
												c-1,0.3-1.9,0.6-2.6,1c-1.2,0.5-2.4,1-3.5,1.6c-3,1.6-5.3,2.9-7.3,4.5c-1.1,0.9-2,1.8-2.8,2.6c-1,1-1.8,1.9-2.8,3
												c-0.7,0.9-1.4,1.9-2.4,3.1c-0.6,0.8-1.1,1.6-1.6,2.4c-0.2,0.3-0.3,0.6-0.6,1c-0.3,0.6-0.8,1.3-1.1,1.9s-0.6,1.1-1,1.7
												l-0.2,0.3c-0.8,1.4-1.4,2.9-2,4.2l-2.3,1.5l0,0.1l-0.8,1.7c-0.7,1.5-1.6,3.1-2.3,4.7c-1.2,2.5-2.4,5.1-3.3,7.4
												c-0.9,2.1-1.6,4.3-2.6,7c-0.2-0.5-0.2-1-0.3-1.5c-0.9-3.3-1.9-6.4-2.8-9.5c-0.5-1.4-0.8-2.9-1.3-4.2
												c-0.5-1.2-1-2.5-1.5-3.7l0-0.1l-0.3-0.8l-0.7-1.5L65,107c-0.6-1.9-1.7-4-2.4-6.1c-1-2.5-1.9-5.2-2.9-7.7l-0.3-0.8
												c0-0.1,0-0.1-0.2-0.3c0-0.5-0.2-1.1-0.2-1.5c0-0.5,0.1-0.9,0.3-1.6c0.4-0.8,0.6-1.4,0.9-2.1l0.2-0.4
												c0.5-1,0.9-1.8,1.3-2.8c0.7-1.3,1.1-2.3,1.4-3.3c0.2-0.3,0.3-0.6,0.5-1c0.4-0.8,0.6-1.5,1.1-2.4l0.4-1.1
												c0.7-1.5,1.5-3.4,2.2-5c0.4-0.8,0.6-1.5,1-2.4l0.4-0.8c0.4-1.2,1-2.4,1.2-3.3L70,64l0,0.1c0.6-1.8,1.1-3.7,1.7-5.3
												c0.1-0.8,0.5-1.4,0.6-2.2l0.2-0.4c0.7-2.2,1.3-4.4,1.9-6.6c0.5-2.5,1.1-5.1,1.4-7.2l0.1-0.7c0.5-2,0.7-4.2,1.1-6.5
												c0.1-1.3,0.3-2.6,0.3-3.9c0-1.2-0.1-2.3-0.2-3.6c-0.3-2.5-1-5.1-1.8-8c-0.3-1.1-0.7-2.3-1.3-3.6
												c-0.5-1.2-1.2-2.5-2.1-3.6s-1.4-2.2-2.3-3.2c-0.5-0.7-1-1.2-1.4-1.9c-0.3-0.3-0.7-0.8-1-1.1c-0.8-1-1.4-2-2.1-2.9
												l-0.3-0.1l-0.2-0.3C64.7,2.8,64.3,2.3,64,2c-0.1-0.1-0.3-0.4-0.6-0.6l-0.1-0.1c-0.1-0.1-0.4-0.3-0.6-0.5l0.2-0.5
												c-0.6-0.3-1.6-0.2-2.3-0.1c-0.8,0.3-1.4,0.8-1.9,1.4c-0.4,0.3-0.7,0.8-1.3,1.4c-0.7,0.9-1.4,1.9-2,2.8l-0.1,0.1
												c-0.8,1.1-1.4,2.3-2.1,3.6l-0.5,0.7l-0.4,0.8c-0.2,0.3-0.5,0.7-0.6,1.1c-0.1,0.1-0.2,0.3-0.3,0.4c-0.5,0.7-1,1.7-1.2,2.5
												l-0.7,1.3c-0.5,0.7-0.7,1.5-1.2,2.5c-0.6,1.4-1.1,2.5-1.6,3.8c-0.2,0.3-0.3,0.6-0.3,1c-0.3,1-0.6,1.8-0.9,2.6
												c-1.1,3.2-1.6,5.6-2.1,7.7c-0.3,1.1-0.4,2.4-0.7,3.5l0,0.2l-0.1,0.7c-0.2,0.9-0.5,2-0.5,3.2c-0.2,1.1-0.2,2.3-0.2,3.5
												l0,0.6c0,0.8,0.1,1.7,0.1,2.5c0,0.5,0,0.8,0,1.3c0,0.8,0.1,1.7,0,2.6l0,1.2l0,0.2c0,1.2,0,2.2,0,3.3
												c0.2,2.6,0.7,5.1,1.2,7.7c0.7,3.1,1.4,5.8,1.9,8.1c0.3,1.1,0.7,2.3,1.2,3.5c0.3,1,0.6,1.7,1.1,2.5
												c0.2,0.3,0.4,0.6,0.3,0.8c1,2,2,4.2,3.2,6.8l0.5,0.8c0.4,0.6,0.6,1.3,1,1.9c0.4,0.9,0.9,1.9,1.1,2.6
												c0.2,0.3,0.2,0.5,0.3,0.8c0.1,0.4,0.2,0.5,0.3,0.8c0.2,0.5,0.5,1.1,0.7,1.5c0.2,0.5,0.5,0.8,0.7,0.9c0.3,1,0.8,2,1.1,3
												c0.3,0.8,0.6,1.7,1,2.5l0.2,0.5c0.4,0.6,0.5,1.2,0.7,1.9c1.5,3.7,2.8,7.2,4,10.3c0.7,1.5,1.1,3.2,1.8,5.3L64,119
												c-0.3-0.3-0.7-0.8-0.9-1.1l-0.2,0c-0.7-0.8-1.1-1.6-1.6-2.4c-0.8-1-1.4-2-2.2-2.9c-0.7-0.8-1.2-1.7-1.9-2.6
												c-0.7-0.9-1.3-2.1-1.9-2.8l-0.2-0.6c-1.3-2.1-2.6-4-3.8-6.1c-0.4-0.6-0.8-1.3-1.1-1.7s-0.5-0.8-0.8-1.3
												c-0.6-1.2-1.4-2.2-2.3-3.3c-0.3-0.4-0.7-0.9-0.9-1.4c-0.5-0.7-0.9-1.1-1.2-1.7c-0.5-0.7-0.9-1.4-1.4-2
												c-0.3-0.4-0.5-0.8-0.8-1.3c-0.7-0.9-1.1-1.7-1.8-2.6c-0.9-1.4-1.8-2.6-2.7-4.1c-0.3-0.4-0.7-0.8-0.8-1.3
												c-0.5-0.7-0.9-1.4-1.3-2.1c-0.2-0.3-0.4-0.6-0.5-0.8c-0.5-0.8-0.9-1.6-1.6-2.4c-0.7-0.9-1.4-1.9-2-2.7l-0.2-0.3l-0.5-0.5
												c-0.7-0.8-1.1-1.6-1.7-2.4c-1.5-1.6-3.2-3.9-5.5-5.8c-2-1.9-4.2-3.4-5.9-4.8c-0.6-0.5-1.3-0.9-1.9-1.4
												c-0.3-0.3-0.8-0.6-1.1-0.9c-0.4-0.3-1-0.6-1.3-0.9c-0.5-0.4-1.2-0.8-1.6-1.2c-1.3-0.9-2.5-1.7-3.5-2.3
												c-1.1-0.8-2.2-1.3-3.3-1.7S3.1,49.1,2,49.3c-0.6,0.1-1.3,0.6-1.5,1.3c0,0.1-0.1,0.1-0.2,0.3c-0.1,0.7-0.1,0.8-0.2,1.5
												c0,0.1,0,0.2,0,0.5C0,54,0.2,55,0.2,56.2c0.2,1.1,0.2,2.1,0.4,3.3c0.1,1.3,0.3,2.5,0.3,3.8L1.1,64c0.2,1,0.2,1.9,0.3,2.9
												c0.1,1.3,0.5,2.5,0.8,3.7c0.1,0.6,0.2,1.1,0.3,1.7c0.5,2.1,0.8,4.2,1.4,6.3c0.4,1.2,0.9,2.5,1.3,3.7
												c0.4,0.6,0.7,1.4,0.8,2c0.2,0.5,0.3,1,0.6,1.3c1.1,2.5,2.1,4.9,3.4,7.2c0.6,1.3,1.5,2.3,2.1,3.5c0.3,0.3,0.5,0.8,0.9,1.1
												c0.5,0.7,0.8,1.4,1.3,2.1c1.4,2,3.1,4,5,6.1c1.8,1.8,3.5,3.6,5.5,5.1c1.7,1.6,3.8,3,6.5,4.7c2,1.3,4.1,2.2,6.6,3.1
												c0.3,0.2,0.8,0.4,1.1,0.4c0.8,0.4,1.5,0.6,2.4,1.1c1.1,0.4,2.4,1.1,3.6,1.5c0.7,0.1,1.1,0.4,1.8,0.6
												c0.7,0.1,1.2,0.4,1.8,0.6c0.6,0.3,1.2,0.4,1.9,0.8c0.4,0.2,1,0.5,1.4,0.6c0.6,0.3,1.2,0.4,1.9,0.8
												c0.6,0.3,1.2,0.4,1.9,0.8c1.2,0.4,2.4,1.1,3.6,1.5l1,0.5c2.1,0.9,4.1,1.8,6.1,2.9c0.3,0.2,0.8,0.4,1.1,0.3
												c0.3,1.1,1.3,1.8,1.9,2.9c0.6,1,0.9,1.3,1.3,2.2L73.5,139.3z"/>
										</g>
									</g>
								</g>
							</g>
						</g>
					</g>
				</g>
			</g>
		</g>
	</g>
</g>
</svg>
